<?xml version="1.0" standalone="no"?>
<!DOCTYPE svg PUBLIC "-//W3C//DTD SVG 20010904//EN"
 "http://www.w3.org/TR/2001/REC-SVG-20010904/DTD/svg10.dtd">
<svg version="1.0" xmlns="http://www.w3.org/2000/svg"
 width="500.000000pt" height="500.000000pt" viewBox="0 0 500.000000 500.000000"
 preserveAspectRatio="xMidYMid meet">

<g transform="translate(0.000000,500.000000) scale(0.100000,-0.100000)"
fill="#000000" stroke="none">
<path d="M1840 4167 c-38 -19 -50 -54 -50 -148 l0 -87 -198 -4 -198 -3 -66
-33 c-76 -37 -120 -83 -157 -162 l-26 -55 -3 -1270 c-2 -865 1 -1286 8 -1321
26 -125 106 -211 230 -248 48 -14 176 -16 1115 -16 907 0 1069 2 1118 15 126
33 210 122 237 249 7 35 10 456 8 1321 l-3 1270 -33 67 c-37 76 -83 120 -162
157 -52 24 -66 25 -252 29 l-196 4 -4 99 c-3 87 -6 101 -26 121 l-23 23 -647
2 c-506 2 -652 0 -672 -10z m1188 -284 c-3 -135 -18 -167 -88 -203 -37 -19
-60 -20 -440 -20 -380 0 -403 1 -440 20 -70 36 -85 68 -88 203 l-4 117 532 0
532 0 -4 -117z m-1209 -188 c34 -79 91 -139 169 -177 l67 -33 423 -3 c470 -3
486 -2 578 60 56 38 116 113 134 169 l13 39 181 0 c204 0 232 -7 273 -69 l23
-34 0 -1271 c0 -1251 0 -1272 -20 -1304 -11 -18 -34 -41 -52 -52 -32 -20 -53
-20 -1108 -20 -1055 0 -1076 0 -1108 20 -18 11 -41 34 -52 52 -20 32 -20 53
-20 1304 l0 1271 23 34 c41 62 69 69 272 69 l180 0 24 -55z"/>
<path d="M1725 3108 c-32 -17 -45 -39 -45 -77 1 -40 14 -62 47 -79 31 -17
1515 -17 1546 0 32 17 46 39 47 75 0 45 -9 62 -41 78 -24 13 -139 15 -781 15
-526 -1 -759 -4 -773 -12z"/>
<path d="M1705 2435 c-17 -16 -25 -35 -25 -60 0 -25 8 -44 25 -60 l24 -25 775
0 775 0 20 26 c29 37 27 89 -4 119 l-24 25 -771 0 -771 0 -24 -25z"/>
<path d="M1740 1803 c-62 -23 -81 -103 -35 -148 l24 -25 771 0 771 0 24 25
c35 34 34 93 -1 126 l-26 24 -756 2 c-416 1 -764 -1 -772 -4z"/>
</g>
</svg>
